<svg xmlns="http://www.w3.org/2000/svg" width="35" height="25" viewBox="0 0 35 25">
  <path id="Icon_awesome-cloud-upload-alt" data-name="Icon awesome-cloud-upload-alt" d="M29.4,13.109a5.492,5.492,0,0,0,.35-1.931A5.306,5.306,0,0,0,24.5,5.821a5.15,5.15,0,0,0-2.915.9A8.714,8.714,0,0,0,14,2.25a8.838,8.838,0,0,0-8.75,8.929c0,.151.005.3.011.452A8.062,8.062,0,0,0,7.875,27.25H28a7.157,7.157,0,0,0,1.4-14.141Zm-7.886,3.426H17.937v6.25a.887.887,0,0,1-.875.893H14.437a.887.887,0,0,1-.875-.893v-6.25H9.986a.894.894,0,0,1-.618-1.523l5.764-5.882a.866.866,0,0,1,1.236,0l5.764,5.882a.9.9,0,0,1-.618,1.523Z" transform="translate(0 -2.25)" fill="#fff"/>
</svg>
