<svg xmlns="http://www.w3.org/2000/svg" width="166.727" height="112.919" viewBox="0 0 166.727 112.919">
  <path id="Icon_awesome-cloud-upload-alt" data-name="Icon awesome-cloud-upload-alt" d="M140.05,51.3a23.667,23.667,0,0,0,1.667-8.721c0-13.359-11.2-24.2-25.009-24.2a25.476,25.476,0,0,0-13.885,4.083A41.912,41.912,0,0,0,66.691,2.25C43.662,2.25,25.009,20.3,25.009,42.578c0,.681.026,1.361.052,2.042C10.473,49.585,0,63.045,0,78.874c0,20.038,16.8,36.3,37.513,36.3h95.868c18.418,0,33.345-14.443,33.345-32.263C166.727,67.3,155.264,54.274,140.05,51.3ZM102.485,66.775H85.447v28.23a4.114,4.114,0,0,1-4.168,4.033h-12.5a4.114,4.114,0,0,1-4.168-4.033V66.775H47.569a4.011,4.011,0,0,1-2.944-6.881L72.083,33.328a4.283,4.283,0,0,1,5.888,0l27.458,26.566A4.016,4.016,0,0,1,102.485,66.775Z" transform="translate(0 -2.25)"/>
</svg>
