<svg xmlns="http://www.w3.org/2000/svg" width="22.047" height="20.875" viewBox="0 0 22.047 20.875">
  <path id="Icon_awesome-list" data-name="Icon awesome-list" d="M3.445,19.433H.689a.752.752,0,0,0-.689.8v3.212a.753.753,0,0,0,.689.8H3.445a.753.753,0,0,0,.689-.8V20.236A.752.752,0,0,0,3.445,19.433Zm0-16.058H.689a.752.752,0,0,0-.689.8V7.389a.752.752,0,0,0,.689.8H3.445a.752.752,0,0,0,.689-.8V4.178A.752.752,0,0,0,3.445,3.375Zm0,8.029H.689a.753.753,0,0,0-.689.8v3.212a.752.752,0,0,0,.689.8H3.445a.752.752,0,0,0,.689-.8V12.207A.752.752,0,0,0,3.445,11.4Zm17.913,8.832H7.579a.752.752,0,0,0-.689.8v1.606a.752.752,0,0,0,.689.8H21.358a.752.752,0,0,0,.689-.8V21.039A.752.752,0,0,0,21.358,20.236Zm0-16.058H7.579a.752.752,0,0,0-.689.8V6.587a.752.752,0,0,0,.689.8H21.358a.753.753,0,0,0,.689-.8V4.981A.752.752,0,0,0,21.358,4.178Zm0,8.029H7.579a.752.752,0,0,0-.689.8v1.606a.752.752,0,0,0,.689.8H21.358a.752.752,0,0,0,.689-.8V13.01A.752.752,0,0,0,21.358,12.207Z" transform="translate(0 -3.375)" fill="#fff"/>
</svg>
